<svg width="900" height="500" viewBox="0 0 900 500" xmlns="http://www.w3.org/2000/svg">
  <defs>
    <linearGradient id="spine" x1="0" y1="0" x2="1" y2="0">
      <stop offset="0%" stop-color="#000" stop-opacity="0.0"/>
      <stop offset="40%" stop-color="#000" stop-opacity="0.12"/>
      <stop offset="50%" stop-color="#000" stop-opacity="0.2"/>
      <stop offset="60%" stop-color="#000" stop-opacity="0.12"/>
      <stop offset="100%" stop-color="#000" stop-opacity="0.0"/>
    </linearGradient>
    
    <filter id="paper">
      <feTurbulence type="fractalNoise" baseFrequency="0.04" numOctaves="3" result="noise"/>
      <feColorMatrix type="matrix" values="1 0 0 0 0  0 1 0 0 0  0 0 1 0 0  0 0 0 0.05 0" in="noise" result="coloredNoise"/>
      <feBlend in="SourceGraphic" in2="coloredNoise" mode="multiply"/>
    </filter>

    <style>
      .handwriting { font-family: 'Brush Script MT', 'Segoe Script', 'Bradley Hand', cursive; font-size: 32px; fill: #2c3e50; opacity: 0.85; }
      .lines { stroke: #d1d8e0; stroke-width: 1.2; }
      .margin { stroke: #ff7675; stroke-width: 1.5; opacity: 0.6; }
      .campus-logo { font-family: sans-serif; font-size: 14px; font-weight: 900; fill: #fff; letter-spacing: 1px; }
      .campus-sub { font-family: sans-serif; font-size: 8px; fill: #fff; }
    </style>
  </defs>

  <g transform="translate(20, 40)">
    <g transform="rotate(-6, 50, 200)">
      <rect x="20" y="50" width="200" height="280" rx="4" fill="#e8f5e9" stroke="#c8e6c9"/>
      <rect x="20" y="50" width="25" height="280" fill="#2e7d32" rx="2"/> </g>

    <g transform="rotate(-2, 50, 200)">
      <rect x="40" y="40" width="200" height="280" rx="4" fill="#fce4ec" stroke="#f8bbd0"/>
      <rect x="40" y="40" width="25" height="280" fill="#c2185b" rx="2"/>
    </g>

    <g transform="rotate(2, 50, 200)">
      <rect x="65" y="35" width="200" height="280" rx="4" fill="#000" opacity="0.1"/>
      <rect x="60" y="30" width="200" height="280" rx="4" fill="#e3f2fd" stroke="#bbdefb"/>
      <rect x="60" y="30" width="25" height="280" fill="#1565c0" rx="2"/>
      
      <rect x="95" y="60" width="150" height="3" fill="#1565c0"/>
      <rect x="95" y="65" width="100" height="25" fill="#1565c0"/>
      <text x="100" y="83" class="campus-logo">CAMPUS</text>
      <text x="95" y="100" class="campus-sub">NOTEBOOK • B5 • 30 SHEETS</text>
      <rect x="95" y="110" width="150" height="1" fill="#1565c0"/>
    </g>
  </g>

  <rect x="285" y="45" width="570" height="400" rx="5" fill="#000" opacity="0.15"/>

  <g filter="url(#paper)">
    <rect x="280" y="40" width="285" height="400" rx="4" fill="#fdfcf8" stroke="#dcdde1"/>
    <rect x="565" y="40" width="285" height="400" rx="4" fill="#fdfcf8" stroke="#dcdde1"/>
    
    <rect x="550" y="40" width="30" height="400" fill="url(#spine)"/>

    <g>
      <line x1="280" y1="80" x2="565" y2="80" stroke="#95a5a6" stroke-width="2"/>
      <path d="M280,120 L565,120 M280,150 L565,150 M280,180 L565,180 M280,210 L565,210 M280,240 L565,240 M280,270 L565,270 M280,300 L565,300 M280,330 L565,330 M280,360 L565,360 M280,390 L565,390" class="lines"/>
      <line x1="320" y1="40" x2="320" y2="440" class="margin"/>
    </g>

    <g>
      <line x1="565" y1="80" x2="850" y2="80" stroke="#95a5a6" stroke-width="2"/>
      <path d="M565,120 L850,120 M565,150 L850,150 M565,180 L850,180 M565,210 L850,210 M565,240 L850,240 M565,270 L850,270 M565,300 L850,300 M565,330 L850,330 M565,360 L850,360 M565,390 L850,390" class="lines"/>
      </g>

    <g transform="rotate(-1, 565, 200)">
      <text x="430" y="235" text-anchor="middle" class="handwriting">if life is a notebook</text>
      <text x="700" y="265" text-anchor="middle" class="handwriting">then this is my "beech ka panna"</text>
    </g>
  </g>
</svg>
